<?xml version="1.0" encoding="utf-8"?>
<!-- Generator: Adobe Illustrator 24.2.3, SVG Export Plug-In . SVG Version: 6.00 Build 0)  -->
<svg version="1.1" xmlns="http://www.w3.org/2000/svg" xmlns:xlink="http://www.w3.org/1999/xlink" x="0px" y="0px"
	 viewBox="0 0 1920 1080" style="enable-background:new 0 0 1920 1080;" xml:space="preserve">
<style type="text/css">
	.st0{fill:#D3500F;}
	.st1{fill:url(#SVGID_1_);}
	.st2{fill:#FFFFFF;}
	.st3{fill:#808080;}
</style>
<g id="Layer_1">
	<g>
		<path class="st0" d="M721.8,433c0,7.2-0.3,14.3-0.9,21.4h-27.4c0.7-7,1.1-14.2,1.1-21.4c0-7.2-0.4-14.3-1.1-21.4h27.4
			C721.5,418.7,721.8,425.8,721.8,433z"/>
		<path class="st0" d="M712.9,499.5C684.8,602.5,592.8,678,483.8,678c-110.4,0-203.3-77.4-230.2-182.4l26.7-7.6
			c24.2,89.7,106.2,155.8,203.5,155.8c96,0,177.1-64.3,202.5-152.2L712.9,499.5z"/>
		<path class="st0" d="M272.9,433c0,7.2,0.4,14.4,1.1,21.4h-27.4c-0.6-7.1-0.9-14.2-0.9-21.4c0-7.2,0.3-14.3,0.9-21.4H274
			C273.3,418.7,272.9,425.8,272.9,433z"/>
		<path class="st0" d="M712.5,365l-26.7,7.6c-26-87-106.6-150.4-202-150.4c-95.2,0-175.7,63.1-201.9,149.8l-26.6-7.9
			C284.2,262.4,375.5,188,483.8,188C592.3,188,683.8,262.7,712.5,365z"/>
	</g>
	<linearGradient id="SVGID_1_" gradientUnits="userSpaceOnUse" x1="289.7542" y1="433.0053" x2="677.7499" y2="433.0053">
		<stop  offset="0" style="stop-color:#808080"/>
		<stop  offset="5.307262e-02" style="stop-color:#808080"/>
		<stop  offset="9.776536e-02" style="stop-color:#808080"/>
		<stop  offset="0.13" style="stop-color:#8C8C8C"/>
		<stop  offset="0.1887" style="stop-color:#ADADAD"/>
		<stop  offset="0.1983" style="stop-color:#B3B3B3"/>
		<stop  offset="0.3083" style="stop-color:#A3A3A3"/>
		<stop  offset="0.4944" style="stop-color:#808080"/>
		<stop  offset="0.9944" style="stop-color:#666666"/>
	</linearGradient>
	<path class="st1" d="M677.7,433c0,8-0.5,15.8-1.4,23.6c-0.4,3.2-0.9,6.4-1.4,9.6C659.2,557.5,579.6,627,483.8,627
		c-95.8,0-175.4-69.5-191.2-160.8c-0.6-3.2-1-6.4-1.4-9.6c-0.9-7.7-1.4-15.6-1.4-23.6c0-8,0.5-15.8,1.4-23.5c0.2-2,0.5-3.9,0.8-5.9
		C306.2,310.4,386.6,239,483.8,239c97.1,0,177.6,71.4,191.8,164.6c0.3,1.9,0.6,3.9,0.8,5.9C677.3,417.2,677.7,425,677.7,433z"/>
	<g>
		<path class="st2" d="M601.9,350.6c-6.9-12.7-16.6-22.8-29-30.1c-12.4-7.3-26.5-11-42.4-11H387.3v113.2h-31.7v58.9h31.7v83.4h82.1
			v-82.5h61.3c15.8,0,30-3.7,42.4-11c12.4-7.3,22-17.4,29-30.3c6.9-12.9,10.4-27.2,10.4-43.1v-4.8
			C612.3,377.7,608.9,363.4,601.9,350.6z M546,417.7c0,9.1-2.5,15.8-7.5,20.1c-5,4.3-12.8,6.4-23.4,6.4c-2.8,0-5.6,0-8.6-0.1v21H480
			v-21.9c-10.3-0.5-20.9-1.1-31.8-1.8v-18.8c12.2,0.6,22.8,1,31.8,1.4c11.5,0.4,20.4,0.7,26.5,0.7c0.7,0,1.4,0,2.1,0
			c2.5,0,4.5-0.6,5.9-1.9c1.5-1.2,2.2-2.9,2.2-5.1v-12.5h-37.4c-11.4,0-19.7-2.2-24.8-6.6c-5.2-4.4-7.7-11.5-7.7-21.2v-4.2
			c0-9.8,2.6-16.8,7.7-21.2c5.2-4.4,13.4-6.6,24.8-6.6h0.7v-24.7h26.5v24.7h29.9v19.5h-50.6c-2.4,0-4.3,0.4-5.8,1.1
			c-2.6,1.3-3.9,3.7-3.9,7.2v2.8c0,3.5,1.3,6,3.9,7.2c1.5,0.7,3.4,1.1,5.8,1.1h29.3c10.6,0,18.5,2.1,23.4,6.4c5,4.3,7.5,11,7.5,20.1
			V417.7z"/>
	</g>
	<g>
		<path class="st0" d="M1305.8,433c0,7.2-0.3,14.3-0.9,21.4h-27.4c0.7-7,1.1-14.2,1.1-21.4c0-7.2-0.4-14.3-1.1-21.4h27.4
			C1305.5,418.7,1305.8,425.8,1305.8,433z"/>
		<path class="st0" d="M1296.9,499.5c-28.2,103-120.1,178.5-229.1,178.5c-110.4,0-203.3-77.4-230.2-182.4l26.7-7.6
			c24.2,89.7,106.2,155.8,203.5,155.8c96,0,177.1-64.3,202.5-152.2L1296.9,499.5z"/>
		<path class="st0" d="M856.9,433c0,7.2,0.4,14.4,1.1,21.4h-27.4c-0.6-7.1-0.9-14.2-0.9-21.4c0-7.2,0.3-14.3,0.9-21.4H858
			C857.3,418.7,856.9,425.8,856.9,433z"/>
		<path class="st0" d="M1296.5,365l-26.7,7.6c-26-87-106.6-150.4-202-150.4c-95.2,0-175.7,63.1-201.9,149.8l-26.6-7.9
			C868.2,262.4,959.5,188,1067.8,188C1176.3,188,1267.8,262.7,1296.5,365z"/>
	</g>
	<path class="st3" d="M1261.8,433c0,8-0.5,15.8-1.4,23.6c-0.4,3.2-0.9,6.4-1.4,9.6c-15.7,91.3-95.3,160.8-191.2,160.8
		c-95.8,0-175.4-69.5-191.2-160.8c-0.6-3.2-1-6.4-1.4-9.6c-0.9-7.7-1.4-15.6-1.4-23.6c0-8,0.5-15.8,1.4-23.5c0.2-2,0.5-3.9,0.8-5.9
		c14.2-93.2,94.6-164.6,191.8-164.6c97.1,0,177.6,71.4,191.8,164.6c0.3,1.9,0.6,3.9,0.8,5.9C1261.3,417.2,1261.8,425,1261.8,433z"/>
	<g>
		<path class="st2" d="M1185.9,350.6c-6.9-12.7-16.6-22.8-29-30.1c-12.4-7.3-26.5-11-42.4-11H971.3v113.2h-31.7v58.9h31.7v83.4h82.1
			v-82.5h61.3c15.8,0,30-3.7,42.4-11c12.4-7.3,22-17.4,29-30.3c6.9-12.9,10.4-27.2,10.4-43.1v-4.8
			C1196.3,377.7,1192.9,363.4,1185.9,350.6z M1130,417.7c0,9.1-2.5,15.8-7.5,20.1c-5,4.3-12.8,6.4-23.4,6.4c-2.8,0-5.6,0-8.6-0.1v21
			H1064v-21.9c-10.3-0.5-20.9-1.1-31.8-1.8v-18.8c12.2,0.6,22.8,1,31.8,1.4c11.5,0.4,20.4,0.7,26.5,0.7c0.7,0,1.4,0,2.1,0
			c2.5,0,4.5-0.6,5.9-1.9c1.5-1.2,2.2-2.9,2.2-5.1v-12.5h-37.4c-11.4,0-19.7-2.2-24.8-6.6c-5.2-4.4-7.7-11.5-7.7-21.2v-4.2
			c0-9.8,2.6-16.8,7.7-21.2c5.2-4.4,13.4-6.6,24.8-6.6h0.7v-24.7h26.5v24.7h29.9v19.5h-50.6c-2.4,0-4.3,0.4-5.8,1.1
			c-2.6,1.3-3.9,3.7-3.9,7.2v2.8c0,3.5,1.3,6,3.9,7.2c1.5,0.7,3.4,1.1,5.8,1.1h29.3c10.6,0,18.5,2.1,23.4,6.4c5,4.3,7.5,11,7.5,20.1
			V417.7z"/>
	</g>
</g>
<g id="Layer_2">
</g>
</svg>
