<?xml version="1.0" encoding="UTF-8"?>
<!DOCTYPE svg PUBLIC "-//W3C//DTD SVG 1.1//EN" "http://www.w3.org/Graphics/SVG/1.1/DTD/svg11.dtd">
<svg xmlns="http://www.w3.org/2000/svg" version="1.1" width="1984px" height="2043px" style="shape-rendering:geometricPrecision; text-rendering:geometricPrecision; image-rendering:optimizeQuality; fill-rule:evenodd; clip-rule:evenodd" xmlns:xlink="http://www.w3.org/1999/xlink">
<g><path style="opacity:0.992" fill="#d2500e" d="M 954.5,-0.5 C 979.167,-0.5 1003.83,-0.5 1028.5,-0.5C 1303.83,15.4322 1534.33,124.432 1720,326.5C 1825.92,444.955 1900.76,581.288 1944.5,735.5C 1944.39,736.442 1944.06,737.275 1943.5,738C 1906.83,748.501 1870.16,759.001 1833.5,769.5C 1766.72,557.951 1640.06,392.785 1453.5,274C 1276.33,166.628 1084.66,125.295 878.5,150C 668.188,180.061 490.688,271.895 346,425.5C 255.5,524.43 190.167,638.43 150,767.5C 113.552,756.407 77.0517,745.407 40.5,734.5C 40.1667,733.667 39.8333,732.833 39.5,732C 108.049,498.717 241.049,312.051 438.5,172C 593.901,65.6993 765.901,8.19925 954.5,-0.5 Z"/></g>
<g><path style="opacity:0.998" fill="#808080" d="M 974.5,211.5 C 1221.49,211.153 1428.33,301.153 1595,481.5C 1744.32,653.442 1811.98,853.775 1798,1082.5C 1781.45,1274.87 1707.45,1440.87 1576,1580.5C 1424.08,1735.01 1239.25,1817.85 1021.5,1829C 794.227,1834.11 597.893,1759.78 432.5,1606C 275.934,1452.63 192.767,1265.8 183,1045.5C 179.442,825.427 250.775,634.094 397,471.5C 553.682,306.608 746.182,219.941 974.5,211.5 Z"/></g>
<g><path style="opacity:1" fill="#fefefe" d="M 589.5,506.5 C 796.5,506.333 1003.5,506.5 1210.5,507C 1309.5,512.747 1390.33,553.58 1453,629.5C 1505.67,699.259 1530.5,778.092 1527.5,866C 1529.83,955.332 1504.33,1035.5 1451,1106.5C 1387.28,1181.94 1305.78,1222.11 1206.5,1227C 1114.83,1227.5 1023.17,1227.67 931.5,1227.5C 931.5,1342.17 931.5,1456.83 931.5,1571.5C 817.5,1571.5 703.5,1571.5 589.5,1571.5C 589.5,1455.5 589.5,1339.5 589.5,1223.5C 545.5,1223.5 501.5,1223.5 457.5,1223.5C 457.5,1141.83 457.5,1060.17 457.5,978.5C 501.5,978.5 545.5,978.5 589.5,978.5C 589.5,821.167 589.5,663.833 589.5,506.5 Z"/></g>
<g><path style="opacity:1" fill="#808080" d="M 1210.5,655.5 C 1210.5,682.167 1210.5,708.833 1210.5,735.5C 1138.66,735.167 1067,735.501 995.5,736.5C 977.74,735.949 965.906,743.949 960,760.5C 959.333,771.167 959.333,781.833 960,792.5C 963.69,806.189 972.524,814.356 986.5,817C 1040.85,817.093 1095.18,817.76 1149.5,819C 1175.28,820.813 1198.61,829.146 1219.5,844C 1238.43,862.036 1248.6,884.203 1250,910.5C 1250.67,931.5 1250.67,952.5 1250,973.5C 1246.47,1022.09 1220.97,1051.59 1173.5,1062C 1162.27,1064.3 1150.93,1065.8 1139.5,1066.5C 1121.5,1066.5 1103.5,1066.5 1085.5,1066.5C 1085.5,1095.83 1085.5,1125.17 1085.5,1154.5C 1049.17,1154.5 1012.83,1154.5 976.5,1154.5C 976.833,1124.16 976.5,1093.83 975.5,1063.5C 931.488,1061.39 887.488,1058.72 843.5,1055.5C 843.5,1029.5 843.5,1003.5 843.5,977.5C 892.175,979.479 940.842,981.645 989.5,984C 1027.16,985.563 1064.82,986.23 1102.5,986C 1116.7,984.127 1125.54,976.294 1129,962.5C 1129.5,943.17 1129.67,923.836 1129.5,904.5C 1069.83,904.667 1010.17,904.5 950.5,904C 869.845,900.008 832.178,857.675 837.5,777C 833.274,704.906 866.94,664.906 938.5,657C 951.137,655.773 963.803,655.273 976.5,655.5C 976.5,621.167 976.5,586.833 976.5,552.5C 1013.17,552.5 1049.83,552.5 1086.5,552.5C 1086.5,586.833 1086.5,621.167 1086.5,655.5C 1127.83,655.5 1169.17,655.5 1210.5,655.5 Z"/></g>
<g><path style="opacity:1" fill="#a6a6a6" d="M 1210.5,655.5 C 1211.5,682.328 1211.83,709.328 1211.5,736.5C 1139.5,736.5 1067.5,736.5 995.5,736.5C 1067,735.501 1138.66,735.167 1210.5,735.5C 1210.5,708.833 1210.5,682.167 1210.5,655.5 Z"/></g>
<g><path style="opacity:0.991" fill="#d2500e" d="M -0.5,1062.5 C -0.5,1034.5 -0.5,1006.5 -0.5,978.5C 0.781215,963.004 1.78122,947.337 2.5,931.5C 41.1681,931.333 79.8348,931.5 118.5,932C 111.833,991.333 111.833,1050.67 118.5,1110C 79.8348,1110.5 41.1681,1110.67 2.5,1110.5C 1.84332,1094.33 0.843324,1078.33 -0.5,1062.5 Z"/></g>
<g><path style="opacity:0.991" fill="#d2500e" d="M 1983.5,980.5 C 1983.5,1007.17 1983.5,1033.83 1983.5,1060.5C 1982.18,1076.99 1981.18,1093.66 1980.5,1110.5C 1941.83,1110.83 1903.16,1110.5 1864.5,1109.5C 1871.15,1050.5 1871.15,991.499 1864.5,932.5C 1903.16,931.5 1941.83,931.167 1980.5,931.5C 1981.22,948.004 1982.22,964.337 1983.5,980.5 Z"/></g>
<g><path style="opacity:1" fill="#adadad" d="M 589.5,506.5 C 589.5,663.833 589.5,821.167 589.5,978.5C 545.5,978.5 501.5,978.5 457.5,978.5C 457.5,1060.17 457.5,1141.83 457.5,1223.5C 456.501,1141.67 456.167,1059.67 456.5,977.5C 500.5,977.5 544.5,977.5 588.5,977.5C 588.167,820.332 588.5,663.332 589.5,506.5 Z"/></g>
<g><path style="opacity:1" fill="#a7a7a7" d="M 1139.5,1066.5 C 1122.01,1067.5 1104.34,1067.83 1086.5,1067.5C 1086.83,1096.67 1086.5,1125.67 1085.5,1154.5C 1085.5,1125.17 1085.5,1095.83 1085.5,1066.5C 1103.5,1066.5 1121.5,1066.5 1139.5,1066.5 Z"/></g>
<g><path style="opacity:0.992" fill="#d2500e" d="M 1001.5,2042.5 C 994.833,2042.5 988.167,2042.5 981.5,2042.5C 705.641,2034.45 472.141,1931.79 281,1734.5C 160.127,1605.32 76.9604,1454.49 31.5,1282C 68.9255,1270.47 106.592,1259.64 144.5,1249.5C 196.772,1437.65 299.105,1592.15 451.5,1713C 654.224,1866.27 881.89,1924.27 1134.5,1887C 1352.3,1848.27 1531.47,1744.43 1672,1575.5C 1747.09,1483.35 1801.25,1379.68 1834.5,1264.5C 1871.82,1275 1908.99,1286 1946,1297.5C 1895.65,1482.02 1801.82,1640.19 1664.5,1772C 1478.35,1945.6 1257.35,2035.77 1001.5,2042.5 Z"/></g>
</svg>
