<?xml version="1.0" encoding="utf-8"?>
<!-- Generator: Adobe Illustrator 24.2.3, SVG Export Plug-In . SVG Version: 6.00 Build 0)  -->
<svg version="1.1" id="Layer_1" xmlns="http://www.w3.org/2000/svg" xmlns:xlink="http://www.w3.org/1999/xlink" x="0px" y="0px"
	 viewBox="0 0 1920 1080" style="enable-background:new 0 0 1920 1080;" xml:space="preserve">
<style type="text/css">
	.st0{fill:#1A1A1A;}
	.st1{fill:#B51C2C;}
	.st2{fill:#FFFFFF;}
</style>
<g>
	<path class="st0" d="M765.7,416.7h9v49h14.8v8.2h-23.8V416.7z"/>
	<path class="st0" d="M802,416.7v44.1c0,4.1,1.8,5.6,4.7,5.6s4.7-1.5,4.7-5.6v-44.1h8.5v43.5c0,9.1-4.6,14.4-13.4,14.4
		c-8.8,0-13.4-5.2-13.4-14.4v-43.5H802z"/>
	<path class="st0" d="M852,452.5v7.6c0,9.1-4.6,14.4-13.4,14.4c-8.8,0-13.4-5.2-13.4-14.4v-29.7c0-9.1,4.6-14.4,13.4-14.4
		c8.8,0,13.4,5.2,13.4,14.4v5.6h-8.5v-6.1c0-4.1-1.8-5.6-4.7-5.6s-4.7,1.6-4.7,5.6v30.9c0,4.1,1.8,5.6,4.7,5.6s4.7-1.5,4.7-5.6v-8.2
		H852z"/>
	<path class="st0" d="M886.5,473.8h-9.1l-1.6-10.4h-11l-1.6,10.4h-8.3l9.1-57.2h13.2L886.5,473.8z M866,455.7h8.7l-4.3-28.9
		L866,455.7z"/>
	<path class="st0" d="M920.6,416.7l-9.4,27.8l10,29.4h-9.5l-7.4-22.6l-7.4,22.6h-8.4l10-29.4l-9.4-27.8h9.3l6.8,21.1l6.9-21.1H920.6
		z"/>
</g>
<g>
	<path class="st0" d="M782.3,512.1v4.9h-12v17.5H785v5h-20.3v-49.3H785v5h-14.8v16.8H782.3z"/>
	<path class="st0" d="M798.5,518.1l-2.9,4.9v16.5h-5.5v-49.3h5.5V514l13.1-23.8h5.6l-12.5,22.5l12.9,26.8H809L798.5,518.1z"/>
	<path class="st0" d="M824.4,490.2v49.3h-5.5v-49.3H824.4z"/>
	<path class="st0" d="M830,539.5v-49.3h5.5v44.3h14.1v5H830z"/>
	<path class="st0" d="M859.2,490.2v49.3h-5.5v-49.3H859.2z"/>
	<path class="st0" d="M875.9,490.2c7.7,0,10.7,3.7,10.7,10.9v2.3c0,5.2-1.5,8.4-5.8,9.8c4.8,1.3,6.6,5.1,6.6,10.6v4.2
		c0,7.4-3.6,11.5-11.3,11.5h-11.3v-49.3H875.9z M874.6,511.1c4.4,0,6.6-1.4,6.6-6.5v-2.9c0-4.4-1.5-6.5-5.4-6.5h-5.4v15.9H874.6z
		 M876.2,534.5c4,0,5.8-2.1,5.8-6.7v-4.4c0-5.5-2.2-7.3-6.9-7.3h-4.8v18.4H876.2z"/>
	<path class="st0" d="M903.4,490.2c7.7,0,11,3.9,11,11.3v4c0,5.4-1.9,8.8-6.1,10.1c4.5,1.3,6.2,5,6.2,10.3v7.7c0,2.2,0.1,4.2,1,5.9
		h-5.6c-0.6-1.4-0.9-2.7-0.9-6v-7.7c0-5.6-2.6-7.3-7.2-7.3h-3.9v21h-5.5v-49.3H903.4z M902,513.5c4.4,0,7-1.4,7-6.8V502
		c0-4.4-1.6-6.8-5.7-6.8h-5.3v18.2H902z"/>
	<path class="st0" d="M925.7,490.2v49.3h-5.5v-49.3H925.7z"/>
	<path class="st0" d="M930.9,502.1c0-7.5,3.7-12.4,11.3-12.4c7.6,0,11.3,4.9,11.3,12.4v25.5c0,7.5-3.7,12.4-11.3,12.4
		c-7.5,0-11.3-4.9-11.3-12.4V502.1z M936.3,527.9c0,4.5,1.9,7.1,5.8,7.1c4,0,5.8-2.6,5.8-7.1v-26c0-4.4-1.8-7.1-5.8-7.1
		c-3.9,0-5.8,2.7-5.8,7.1V527.9z"/>
	<path class="st0" d="M976.8,539.5v-44.3h-9.1v-5h23.6v5h-9.1v44.3H976.8z"/>
	<path class="st0" d="M1012.7,512.1v4.9h-12v17.5h14.8v5h-20.3v-49.3h20.3v5h-14.8v16.8H1012.7z"/>
	<path class="st0" d="M1042.2,502.1v4.4h-5.2v-4.7c0-4.4-1.8-7.1-5.8-7.1c-3.9,0-5.8,2.7-5.8,7.1v26c0,4.4,1.8,7.1,5.8,7.1
		c4,0,5.8-2.7,5.8-7.1v-6.4h5.2v6.1c0,7.5-3.5,12.4-11.1,12.4c-7.5,0-11.1-4.9-11.1-12.4v-25.5c0-7.5,3.5-12.4,11.1-12.4
		C1038.7,489.7,1042.2,494.7,1042.2,502.1z"/>
	<path class="st0" d="M1052.7,517.3v22.2h-5.5v-49.3h5.5v22.2h12.1v-22.2h5.5v49.3h-5.5v-22.2H1052.7z"/>
</g>
<rect x="740.5" y="415.5" class="st1" width="9" height="126"/>
<path class="st1" d="M682.8,547h-58.2c-21.8,0-39.6-17.8-39.6-39.6v-58.2c0-21.8,17.8-39.6,39.6-39.6h58.2
	c21.8,0,39.6,17.8,39.6,39.6v58.2C722.4,529.2,704.6,547,682.8,547z"/>
<polygon class="st2" points="702.6,494.3 702.5,518.2 648.3,517.9 648.3,517.9 621.8,517.8 622.2,433 648.7,433.1 648.4,493.8 
	648.1,494 630.6,507.3 628.4,508.9 630.6,507.9 648.3,499.9 661,494.1 "/>
<g>
	<path class="st0" d="M950.1,416c8.5,0,12.9,5.1,12.9,14.1v1.8h-8.3v-2.3c0-4-1.6-5.5-4.4-5.5c-2.8,0-4.4,1.5-4.4,5.5
		c0,11.5,17.2,13.7,17.2,29.6c0,8.9-4.5,14.1-13.1,14.1c-8.6,0-13.1-5.1-13.1-14.1v-3.4h8.3v4c0,4,1.8,5.4,4.6,5.4
		c2.8,0,4.6-1.4,4.6-5.4c0-11.5-17.2-13.7-17.2-29.6C937.1,421.1,941.5,416,950.1,416z"/>
	<path class="st0" d="M987.6,442.8l-3.2,29.8h-12.1l-6.2-55.9h8.5l4.7,44.1l4.2-44.1h8.5l4.4,44.4l4.6-44.4h7.7l-6.2,55.9h-11.7
		L987.6,442.8z"/>
	<path class="st0" d="M1040.3,472.6h-8.9l-1.5-10.1h-10.8l-1.5,10.1h-8.1l8.9-55.9h12.9L1040.3,472.6z M1020.3,454.8h8.5l-4.2-28.3
		L1020.3,454.8z"/>
	<path class="st0" d="M1070.4,430.5v7.3c0,8.9-4.3,13.8-13.1,13.8h-4.2v21h-8.8v-55.9h12.9C1066.1,416.6,1070.4,421.5,1070.4,430.5z
		 M1053.2,424.6v18.9h4.2c2.8,0,4.3-1.3,4.3-5.3v-8.4c0-4-1.5-5.3-4.3-5.3H1053.2z"/>
</g>
</svg>
